<mxfile host="app.diagrams.net" agent="Mozilla/5.0 (Macintosh; Intel Mac OS X 10_15_7) AppleWebKit/605.1.15 (KHTML, like Gecko) Version/18.6 Safari/605.1.15" version="28.1.1">
  <diagram name="Page-1" id="Gbfml8uwUzoOf6Xi5wie">
    <mxGraphModel dx="3030" dy="1843" grid="1" gridSize="10" guides="1" tooltips="1" connect="1" arrows="1" fold="1" page="1" pageScale="1" pageWidth="850" pageHeight="1100" math="0" shadow="0">
      <root>
        <mxCell id="0" />
        <mxCell id="1" parent="0" />
        <mxCell id="GPRJUJBFsbXBU5CpbV_r-1" value="" style="whiteSpace=wrap;html=1;aspect=fixed;fillColor=#bac8d3;strokeColor=#23445d;fillStyle=solid;" parent="1" vertex="1">
          <mxGeometry x="-1600" y="-1080" width="560" height="560" as="geometry" />
        </mxCell>
        <mxCell id="GPRJUJBFsbXBU5CpbV_r-4" value="" style="image;points=[];aspect=fixed;html=1;align=center;shadow=0;dashed=0;image=img/lib/allied_telesis/computer_and_terminals/Personal_Computer.svg;" parent="1" vertex="1">
          <mxGeometry x="-1499.9999999999998" y="-750.15" width="45.6" height="61.800000000000004" as="geometry" />
        </mxCell>
        <mxCell id="iml-WEArlf5vRnjp5t_m-1" value="" style="image;html=1;image=img/lib/clip_art/networking/Wireless_Router_128x128.png" parent="1" vertex="1">
          <mxGeometry x="-1389.9999999999998" y="-950" width="80" height="80" as="geometry" />
        </mxCell>
        <mxCell id="iml-WEArlf5vRnjp5t_m-2" value="" style="image;aspect=fixed;perimeter=ellipsePerimeter;html=1;align=center;shadow=0;dashed=0;spacingTop=3;image=img/lib/active_directory/modem.svg;" parent="1" vertex="1">
          <mxGeometry x="-1282.7999999999997" y="-740" width="50" height="41.5" as="geometry" />
        </mxCell>
        <mxCell id="iml-WEArlf5vRnjp5t_m-3" value="" style="endArrow=classic;html=1;rounded=0;exitX=0.877;exitY=0.164;exitDx=0;exitDy=0;exitPerimeter=0;entryX=0;entryY=0.75;entryDx=0;entryDy=0;" parent="1" source="GPRJUJBFsbXBU5CpbV_r-4" target="iml-WEArlf5vRnjp5t_m-1" edge="1">
          <mxGeometry width="50" height="50" relative="1" as="geometry">
            <mxPoint x="-1480" y="-720" as="sourcePoint" />
            <mxPoint x="-1410" y="-810" as="targetPoint" />
            <Array as="points">
              <mxPoint x="-1440" y="-740" />
              <mxPoint x="-1440" y="-890" />
            </Array>
          </mxGeometry>
        </mxCell>
        <mxCell id="iml-WEArlf5vRnjp5t_m-4" value="" style="endArrow=classic;html=1;rounded=0;exitX=1;exitY=0.5;exitDx=0;exitDy=0;entryX=0.5;entryY=0;entryDx=0;entryDy=0;" parent="1" source="iml-WEArlf5vRnjp5t_m-1" target="iml-WEArlf5vRnjp5t_m-2" edge="1">
          <mxGeometry width="50" height="50" relative="1" as="geometry">
            <mxPoint x="-1164.7" y="-930.0039215686273" as="sourcePoint" />
            <mxPoint x="-1260" y="-740" as="targetPoint" />
            <Array as="points">
              <mxPoint x="-1260" y="-910" />
            </Array>
          </mxGeometry>
        </mxCell>
        <mxCell id="iml-WEArlf5vRnjp5t_m-5" value="" style="image;aspect=fixed;perimeter=ellipsePerimeter;html=1;align=center;shadow=0;dashed=0;spacingTop=3;image=img/lib/active_directory/internet_globe.svg;" parent="1" vertex="1">
          <mxGeometry x="-1152.8" y="-745" width="50" height="50" as="geometry" />
        </mxCell>
        <mxCell id="iml-WEArlf5vRnjp5t_m-6" value="" style="endArrow=classic;html=1;rounded=0;exitX=1;exitY=0.5;exitDx=0;exitDy=0;" parent="1" source="iml-WEArlf5vRnjp5t_m-2" target="iml-WEArlf5vRnjp5t_m-5" edge="1">
          <mxGeometry width="50" height="50" relative="1" as="geometry">
            <mxPoint x="-1134.72" y="-645.8147632272935" as="sourcePoint" />
            <mxPoint x="-1210.0008772186477" y="-669.996642971234" as="targetPoint" />
            <Array as="points" />
          </mxGeometry>
        </mxCell>
      </root>
    </mxGraphModel>
  </diagram>
</mxfile>
